<?xml version="1.0" encoding="UTF-8"?>
<svg version="1.1" xmlns="http://www.w3.org/2000/svg" width="500" height="500">
<path d="M0 0 C2.74400862 0.34152897 3.75350739 0.68639946 5.4921875 2.8984375 C6.17667969 4.12433594 6.17667969 4.12433594 6.875 5.375 C7.390625 6.28507812 7.90625 7.19515625 8.4375 8.1328125 C8.953125 9.07898438 9.46875 10.02515625 10 11 C10.474375 11.86367187 10.94875 12.72734375 11.4375 13.6171875 C12.42282689 15.42183513 13.40304307 17.22927987 14.37890625 19.0390625 C16.14370766 22.26248291 17.97397731 25.44308152 19.8125 28.625 C22.86531975 33.91169798 25.74103684 39.27419977 28.5625 44.6875 C31.57265256 50.4568521 34.80483688 55.94946391 38.3828125 61.390625 C40.71875573 65.15973146 42.60260536 69.11844187 44.54296875 73.1015625 C47.33175848 78.64923537 50.66655741 83.85792356 53.9453125 89.125 C59.29255903 97.745656 64.28100197 106.42309668 68.6875 115.5625 C71.66688415 121.59127993 75.14918297 127.24157515 78.69238281 132.94799805 C82.37225374 138.90025733 85.79812228 144.95904037 89.15258789 151.09912109 C92.34718193 156.91125373 95.73835255 162.58591681 99.1875 168.25 C103.24075175 174.91700119 106.89554162 181.60183497 110.2890625 188.62890625 C113.50160814 194.95864799 117.28331357 200.95729614 121 207 C124.05206203 212.00706951 127.03607807 217.0215346 129.8125 222.1875 C132.21631151 226.65531721 134.79330567 230.98548543 137.4375 235.3125 C141.06355813 241.26107704 144.19394265 247.3115007 147.2421875 253.578125 C149.64176503 258.2493026 152.40349034 262.62819629 155.19921875 267.07421875 C161 276.4989154 161 276.4989154 161 280 C162.32 280.66 163.64 281.32 165 282 C164.34 282.99 163.68 283.98 163 285 C159.93911743 285.39440918 159.93911743 285.39440918 155.95166016 285.41992188 C155.22627548 285.42839142 154.50089081 285.43686096 153.75352478 285.44558716 C151.34852706 285.46904219 148.94416609 285.46997722 146.5390625 285.46875 C144.86998232 285.47584749 143.20090459 285.48354587 141.53182983 285.49182129 C138.0296145 285.50528633 134.52762464 285.50682632 131.02539062 285.50097656 C126.53691563 285.49508444 122.04952382 285.52564129 117.56125832 285.56609344 C114.11254039 285.59194591 110.66408391 285.59485002 107.21528244 285.59120178 C105.56065528 285.59289597 103.90601643 285.60256722 102.25148392 285.62034607 C99.93596317 285.64248473 97.62264215 285.6328623 95.30712891 285.61523438 C93.33095078 285.61831604 93.33095078 285.61831604 91.31484985 285.62145996 C88 285 88 285 85.639328 282.61608887 C84.04792662 280.07648273 82.47743764 277.55198562 81.01171875 274.9375 C80.47361572 273.98190186 79.9355127 273.02630371 79.38110352 272.04174805 C78.82221436 271.03797119 78.2633252 270.03419434 77.6875 269 C77.10863037 267.9685083 76.52976074 266.9370166 75.93334961 265.87426758 C72.3770588 259.52150031 68.89647485 253.13410791 65.4765625 246.70703125 C63.57555043 243.22184245 61.52470278 239.83969029 59.4609375 236.44921875 C56.23501806 231.04105968 53.31369616 225.45968642 50.34765625 219.90625 C45.38805457 210.63932985 40.20148882 201.51489439 34.92578125 192.42578125 C31.78864411 187.00255864 28.74150537 181.5761097 26 175.9375 C23.31538043 170.45153827 20.18753111 165.33167985 16.9453125 160.16015625 C14.63963273 156.41458409 12.52595699 152.59286184 10.453125 148.71484375 C9.41810378 146.78113475 8.36389799 144.85764249 7.296875 142.94140625 C6.74515625 141.95011719 6.1934375 140.95882812 5.625 139.9375 C5.12226563 139.03902344 4.61953125 138.14054688 4.1015625 137.21484375 C3 135 3 135 3 133 C-0.32325421 135.21550281 -1.15886765 136.71140377 -3 140.1875 C-3.495 141.10917969 -3.99 142.03085938 -4.5 142.98046875 C-5.54782963 145.08977163 -6.51906223 147.23809106 -7.4296875 149.41015625 C-9.08963763 153.20491787 -11.02173596 156.69063008 -13.125 160.25 C-15.9137174 164.9537087 -15.9137174 164.9537087 -18 170 C-18.66 170 -19.32 170 -20 170 C-20.25007812 170.84433594 -20.50015625 171.68867188 -20.7578125 172.55859375 C-22.10977686 176.30413023 -23.88664818 179.63181589 -25.875 183.0625 C-26.45568237 184.07993286 -26.45568237 184.07993286 -27.0480957 185.11791992 C-28.36037546 187.41485987 -29.68021004 189.70736802 -31 192 C-33.06453029 195.60300562 -35.12613894 199.20768043 -37.1875 202.8125 C-37.70731445 203.7212085 -38.22712891 204.62991699 -38.76269531 205.56616211 C-43.07710819 213.11638464 -47.29199252 220.70231891 -51.296875 228.421875 C-55.63533312 236.76756666 -60.05600574 244.93421938 -65.06640625 252.8984375 C-67.13008439 256.20866062 -69.11669233 259.557216 -71.0625 262.9375 C-71.65160156 263.95714844 -72.24070312 264.97679687 -72.84765625 266.02734375 C-76.11482055 271.90087876 -79.01927977 277.97742997 -82 284 C-89.3990118 284.13215651 -96.79805116 284.26264691 -104.19712734 284.39115143 C-107.63476918 284.45090452 -111.07240003 284.51117953 -114.51000977 284.57275391 C-143.70681573 285.09501517 -143.70681573 285.09501517 -158 285 C-159.10351562 281.26611328 -159.10351562 281.26611328 -158.171875 278.87109375 C-157.46804687 277.66646484 -157.46804687 277.66646484 -156.75 276.4375 C-156.19570312 275.47457031 -155.64140625 274.51164062 -155.0703125 273.51953125 C-154.58546387 272.69702881 -154.58546387 272.69702881 -154.09082031 271.85791016 C-152.85416944 269.75161804 -151.64140644 267.63244916 -150.4296875 265.51171875 C-146.28419953 258.2766897 -142.09034897 251.08174172 -137.6875 244 C-134.812867 239.37609742 -132.13860121 234.69037767 -129.5703125 229.890625 C-127.11055611 225.36271523 -124.5140158 220.9147381 -121.9296875 216.45703125 C-120.58176149 214.04222454 -119.31489045 211.65289457 -118.09765625 209.17578125 C-115.77109346 204.46798595 -113.17984572 199.92598546 -110.5625 195.375 C-110.04461914 194.47128662 -109.52673828 193.56757324 -108.99316406 192.63647461 C-105.1297327 185.91482164 -101.20200548 179.23237591 -97.25 172.5625 C-88.17629011 157.41719387 -88.17629011 157.41719387 -79.9375 141.8125 C-77.58523893 137.01338292 -74.88649977 132.6133224 -71.96484375 128.14453125 C-69.13569836 123.61677371 -66.61025922 118.93445698 -64.04833984 114.25195312 C-60.80657413 108.36402169 -57.37556542 102.6120684 -53.875 96.875 C-49.83142369 90.22978747 -46.1295359 83.52548561 -42.73046875 76.53051758 C-38.95589338 68.77816621 -34.66042912 61.38216639 -29.8125 54.25 C-27.6437809 51.05937138 -25.90173238 47.87459163 -24.24609375 44.3984375 C-22.56911478 41.17064725 -20.65153888 38.09824491 -18.75 35 C-14.73555749 28.42624693 -11.24563629 21.68111889 -7.86328125 14.765625 C-5.40733744 9.75412032 -2.72392465 4.8700471 0 0 Z " fill="#000003" transform="translate(248,108)"/>
<path d="M0 0 C0.6875 1.6875 0.6875 1.6875 1 4 C-0.25 6.3125 -0.25 6.3125 -2 9 C-2.495 10.216875 -2.99 11.43375 -3.5 12.6875 C-5 16 -5 16 -8 18 C-8.71247732 19.6476038 -9.37400383 21.31763529 -10 23 C-11.5 25.8125 -11.5 25.8125 -13 28 C-13.66 28 -14.32 28 -15 28 C-15 29.32 -15 30.64 -15 32 C-15.66 32 -16.32 32 -17 32 C-16.938125 32.78375 -16.87625 33.5675 -16.8125 34.375 C-16.9053125 35.674375 -16.9053125 35.674375 -17 37 C-17.99 37.66 -18.98 38.32 -20 39 C-20.72382467 41.05925139 -20.72382467 41.05925139 -21 43 C-21.66 43 -22.32 43 -23 43 C-23.12375 43.9075 -23.2475 44.815 -23.375 45.75 C-23.92109677 48.58970323 -24.57263803 50.52590591 -26 53 C-26.99 53 -27.98 53 -29 53 C-29.495 55.475 -29.495 55.475 -30 58 C-31.485 58.495 -31.485 58.495 -33 59 C-31.78536229 54.95899377 -30.36813669 51.73389339 -28 48.25 C-24.8679266 43.46470848 -22.05285804 38.57670275 -19.3125 33.5625 C-15.04601476 25.77116464 -10.54735613 18.14023233 -5.93481445 10.54907227 C-5.45101318 9.75170654 -4.96721191 8.95434082 -4.46875 8.1328125 C-4.04013672 7.43043457 -3.61152344 6.72805664 -3.16992188 6.00439453 C-2.02314185 4.03964829 -0.99342221 2.04592207 0 0 Z " fill="#180F44" transform="translate(202,191)"/>
<path d="M0 0 C0.66 0 1.32 0 2 0 C2 1.32 2 2.64 2 4 C1.01 4.66 0.02 5.32 -1 6 C-1.72382467 8.05925139 -1.72382467 8.05925139 -2 10 C-2.66 10 -3.32 10 -4 10 C-4.12375 10.9075 -4.2475 11.815 -4.375 12.75 C-4.92109677 15.58970323 -5.57263803 17.52590591 -7 20 C-7.99 20 -8.98 20 -10 20 C-10.33 21.65 -10.66 23.3 -11 25 C-11.99 25.33 -12.98 25.66 -14 26 C-12.7357968 21.74654785 -11.14922402 18.37189848 -8.6875 14.6875 C-5.55534865 9.90408895 -2.69957484 5.03837701 0 0 Z " fill="#120D3A" transform="translate(183,224)"/>
<path d="M0 0 C0.66 0.99 1.32 1.98 2 3 C1.34 3 0.68 3 0 3 C0 4.65 0 6.3 0 8 C-1.32 8.33 -2.64 8.66 -4 9 C-3.731875 9.886875 -3.46375 10.77375 -3.1875 11.6875 C-3 15 -3 15 -5.3125 17.875 C-8 20 -8 20 -10 20 C-7.30482741 13.04471589 -3.99369088 6.3058277 0 0 Z " fill="#0F0C2F" transform="translate(135,308)"/>
<path d="M0 0 C0.625 1.875 0.625 1.875 1 4 C0.34 4.66 -0.32 5.32 -1 6 C-1.391875 6.99 -1.78375 7.98 -2.1875 9 C-3.96242917 13.37754553 -6.6896116 16.97913475 -9.4765625 20.765625 C-11.15437492 23.00787106 -11.15437492 23.00787106 -12 26 C-12.66 26 -13.32 26 -14 26 C-12.3306819 21.38004936 -9.98972955 17.25059261 -7.5625 13 C-7.16740234 12.30132812 -6.77230469 11.60265625 -6.36523438 10.8828125 C-4.29148445 7.22528352 -2.18297326 3.5938338 0 0 Z " fill="#171149" transform="translate(236,131)"/>
<path d="M0 0 C0.66 0 1.32 0 2 0 C0.44347945 5.3537465 -1.9817509 10.00150947 -4.625 14.875 C-5.04523438 15.65875 -5.46546875 16.4425 -5.8984375 17.25 C-6.9281022 19.16892057 -7.96347567 21.08477603 -9 23 C-9.33 23 -9.66 23 -10 23 C-10 21.35 -10 19.7 -10 18 C-9.34 18 -8.68 18 -8 18 C-8 16.35 -8 14.7 -8 13 C-7.34 13 -6.68 13 -6 13 C-6 12.34 -6 11.68 -6 11 C-5.34 11 -4.68 11 -4 11 C-4 9.68 -4 8.36 -4 7 C-3.34 7 -2.68 7 -2 7 C-2 5.35 -2 3.7 -2 2 C-1.34 2 -0.68 2 0 2 C0 1.34 0 0.68 0 0 Z " fill="#161547" transform="translate(203,319)"/>
<path d="M0 0 C0.99 0 1.98 0 3 0 C1.64191648 5.16071738 -0.84968501 9.25707809 -3.66015625 13.73046875 C-5.12903566 16.03714501 -5.12903566 16.03714501 -6 19 C-6.66 19 -7.32 19 -8 19 C-8.33 19.66 -8.66 20.32 -9 21 C-9.20086443 17.28400809 -9.1519437 16.22791555 -7 13 C-6.34 13 -5.68 13 -5 13 C-4.855625 12.38125 -4.71125 11.7625 -4.5625 11.125 C-4 9 -4 9 -3 7 C-2.34 7 -1.68 7 -1 7 C-0.67 4.69 -0.34 2.38 0 0 Z " fill="#14124F" transform="translate(236,259)"/>
<path d="M0 0 C1.24546405 2.49092811 0.7767578 3.41080733 0 6 C-0.66 6 -1.32 6 -2 6 C-2 7.65 -2 9.3 -2 11 C-3.98 11.99 -3.98 11.99 -6 13 C-6 14.65 -6 16.3 -6 18 C-7.32 18.33 -8.64 18.66 -10 19 C-8.71078784 16.39459218 -7.41874404 13.79065627 -6.125 11.1875 C-5.76019531 10.44951172 -5.39539063 9.71152344 -5.01953125 8.95117188 C-4.66503906 8.23896484 -4.31054688 7.52675781 -3.9453125 6.79296875 C-3.62062988 6.1383667 -3.29594727 5.48376465 -2.96142578 4.80932617 C-2 3 -2 3 0 0 Z " fill="#221652" transform="translate(247,111)"/>
<path d="M0 0 C3.83154933 1.27718311 4.13271795 2.49884616 6 6 C6.5775 7.010625 7.155 8.02125 7.75 9.0625 C9 12 9 12 8 16 C5.36 10.72 2.72 5.44 0 0 Z " fill="#070D29" transform="translate(312,351)"/>
<path d="M0 0 C0.33 0 0.66 0 1 0 C1.1875 2.3125 1.1875 2.3125 1 5 C-0.4375 6.625 -0.4375 6.625 -2 8 C-2.33 8.99 -2.66 9.98 -3 11 C-3.66 11 -4.32 11 -5 11 C-5 12.32 -5 13.64 -5 15 C-5.99 15.33 -6.98 15.66 -8 16 C-6.44584521 10.0942118 -3.40465533 5.02261107 0 0 Z " fill="#221A53" transform="translate(192,208)"/>
<path d="M0 0 C2.51083114 1.25541557 2.87125446 2.50063488 4 5 C4.66 5 5.32 5 6 5 C6.33 7.64 6.66 10.28 7 13 C0 4.55172414 0 4.55172414 0 0 Z " fill="#111043" transform="translate(263,262)"/>
<path d="M0 0 C0.66 0.99 1.32 1.98 2 3 C1.34 3 0.68 3 0 3 C0 4.65 0 6.3 0 8 C-0.639375 8.103125 -1.27875 8.20625 -1.9375 8.3125 C-2.9584375 8.6528125 -2.9584375 8.6528125 -4 9 C-4.33 9.99 -4.66 10.98 -5 12 C-5.33 11.34 -5.66 10.68 -6 10 C-4.78515625 7.6171875 -4.78515625 7.6171875 -3.0625 4.875 C-2.21365234 3.50988281 -2.21365234 3.50988281 -1.34765625 2.1171875 C-0.90292969 1.41851562 -0.45820313 0.71984375 0 0 Z " fill="#1D154C" transform="translate(135,308)"/>
<path d="M0 0 C0.66 0.99 1.32 1.98 2 3 C1.57847656 3.54269531 1.15695313 4.08539063 0.72265625 4.64453125 C0.17480469 5.35996094 -0.37304688 6.07539063 -0.9375 6.8125 C-1.48277344 7.52019531 -2.02804688 8.22789062 -2.58984375 8.95703125 C-4.16856248 11.04125052 -4.16856248 11.04125052 -5 14 C-5.66 14 -6.32 14 -7 14 C-5.23570801 9.02790438 -2.6060834 4.56561939 0 0 Z " fill="#1A1160" transform="translate(229,143)"/>
<path d="M0 0 C0.66 2.97 1.32 5.94 2 9 C0 8 0 8 -1.125 4.9375 C-1.41375 3.968125 -1.7025 2.99875 -2 2 C-3.98 2.99 -3.98 2.99 -6 4 C-6 3.01 -6 2.02 -6 1 C-4 0 -4 0 0 0 Z " fill="#1E1B56" transform="translate(253,239)"/>
<path d="M0 0 C0.99 0.33 1.98 0.66 3 1 C3 1.99 3 2.98 3 4 C3.66 4 4.32 4 5 4 C5.33 6.31 5.66 8.62 6 11 C3.46166551 9.73083275 3.10599099 8.58375191 1.875 6.0625 C1.52179688 5.35222656 1.16859375 4.64195312 0.8046875 3.91015625 C0 2 0 2 0 0 Z " fill="#0C1038" transform="translate(302,332)"/>
<path d="M0 0 C3.09592835 3.5087188 4.74194623 6.49197399 6 11 C5.34 11 4.68 11 4 11 C0 4.5 0 4.5 0 0 Z " fill="#211C5B" transform="translate(298,192)"/>
<path d="M0 0 C0.75 1.5625 0.75 1.5625 1 4 C-0.13084437 6.50286409 -1.52139516 8.67007722 -3 11 C-3.66 11 -4.32 11 -5 11 C-3.77472971 6.94718288 -2.30119506 3.55639236 0 0 Z " fill="#1E1750" transform="translate(102,366)"/>
<path d="M0 0 C0.66 0 1.32 0 2 0 C0.55049545 3.7910119 -1.15172566 7.3874638 -3 11 C-3.33 9.68 -3.66 8.36 -4 7 C-3.34 7 -2.68 7 -2 7 C-2 5.35 -2 3.7 -2 2 C-1.34 2 -0.68 2 0 2 C0 1.34 0 0.68 0 0 Z " fill="#14134C" transform="translate(225,280)"/>
<path d="M0 0 C0.33 0 0.66 0 1 0 C1.20140476 3.62528568 0.85776765 5.86501708 -1 9 C-1.66 9 -2.32 9 -3 9 C-3.33 9.66 -3.66 10.32 -4 11 C-4.20086443 7.28400809 -4.1519437 6.22791555 -2 3 C-1.34 3 -0.68 3 0 3 C0 2.01 0 1.02 0 0 Z " fill="#111043" transform="translate(231,269)"/>
<path d="M0 0 C1.125 3.75 1.125 3.75 0 6 C-0.66 6 -1.32 6 -2 6 C-2.33 7.65 -2.66 9.3 -3 11 C-3.66 11 -4.32 11 -5 11 C-3.77472971 6.94718288 -2.30119506 3.55639236 0 0 Z " fill="#161147" transform="translate(165,256)"/>
<path d="M0 0 C0.99 0.33 1.98 0.66 3 1 C3 1.66 3 2.32 3 3 C3.66 3.33 4.32 3.66 5 4 C5.40729228 6.32156597 5.74438677 8.6568787 6 11 C3.46166551 9.73083275 3.10599099 8.58375191 1.875 6.0625 C1.52179688 5.35222656 1.16859375 4.64195312 0.8046875 3.91015625 C0 2 0 2 0 0 Z " fill="#19124F" transform="translate(255,248)"/>
<path d="M0 0 C2.61724095 2.36797991 4.32861729 4.89600354 6 8 C6 8.66 6 9.32 6 10 C5.01 10 4.02 10 3 10 C2.49596232 8.70990357 1.99690074 7.41786211 1.5 6.125 C1.2215625 5.40570313 0.943125 4.68640625 0.65625 3.9453125 C0 2 0 2 0 0 Z " fill="#1F184F" transform="translate(258,122)"/>
<path d="M0 0 C0.6875 1.6875 0.6875 1.6875 1 4 C-0.3125 6.75 -0.3125 6.75 -2 9 C-2.66 9 -3.32 9 -4 9 C-2.94124926 5.59687262 -1.99097846 2.98646769 0 0 Z " fill="#1A154C" transform="translate(147,287)"/>
<path d="M0 0 C1 2 1 2 0.25 4.5625 C-1 7 -1 7 -4 8 C-2.87548273 5.0280615 -1.77706209 2.66559313 0 0 Z " fill="#221D4E" transform="translate(107,358)"/>
<path d="M0 0 C2.0625 2.25 2.0625 2.25 4 5 C3.75 7.3125 3.75 7.3125 3 9 C3 8.01 3 7.02 3 6 C1.68 5.67 0.36 5.34 -1 5 C-0.67 3.35 -0.34 1.7 0 0 Z " fill="#0E1533" transform="translate(386,346)"/>
<path d="M0 0 C0.33 0 0.66 0 1 0 C1 1.65 1 3.3 1 5 C0.01 5 -0.98 5 -2 5 C-2 5.99 -2 6.98 -2 8 C-2.66 8 -3.32 8 -4 8 C-2.87548273 5.0280615 -1.77706209 2.66559313 0 0 Z " fill="#18144B" transform="translate(152,279)"/>
<path d="M0 0 C2.79872437 2.52788007 4.45773019 4.20411134 5 8 C2 7 2 7 0 4 C0 2.68 0 1.36 0 0 Z " fill="#1C1B66" transform="translate(325,240)"/>
</svg>
